# xmcd
#
# Track frame offsets:
#	150
#	13867
#	31655
#	48512
#	65882
#	82935
#	103572
#	122312
#	141320
#	157947
#	178235
#	195400
#	208892
#	239753
#
# Disc length: 3986 seconds
#
# Revision: 0
# Processed by: cddbd v1.5PL3 Copyright (c) Steve Scherf et al.
# Submitted via: dBpowerAMP V4.0
#
DISCID=c00f900e
DTITLE=Jamie O'Neal - Shiver
DYEAR=1900
DGENRE=
TTITLE0=When I Think About Angels
TTITLE1=There Is No Arizona
TTITLE2=Where We Belong
TTITLE3=No More Protecting My Heart
TTITLE4=She Hasn't Heard It Yet
TTITLE5=You Rescue Me
TTITLE6=Shiver
TTITLE7=The Only Thing Wrong
TTITLE8=I'm Still Waiting
TTITLE9=I'm Not Gonna Do Anything Without You (With Mark Wills)
TTITLE10=Sanctuary
TTITLE11=Frantic
TTITLE12=To Be With You
TTITLE13=DATA
EXTD=
EXTT0=
EXTT1=
EXTT2=
EXTT3=
EXTT4=
EXTT5=
EXTT6=
EXTT7=
EXTT8=
EXTT9=
EXTT10=
EXTT11=
EXTT12=
EXTT13=
PLAYORDER=
